<?xml version="1.0" encoding="utf-8"?>
<!-- Generator: Adobe Illustrator 22.0.0, SVG Export Plug-In . SVG Version: 6.00 Build 0)  -->
<svg version="1.1" xmlns="http://www.w3.org/2000/svg" xmlns:xlink="http://www.w3.org/1999/xlink" x="0px" y="0px"
	 viewBox="0 0 100 100" style="enable-background:new 0 0 100 100;" xml:space="preserve">
<style type="text/css">
	.st0{fill:#232323;}
	.st1{fill:#F0F0F0;}
	.st2{opacity:8.000000e-02;fill:url(#SVGID_1_);}
	.st3{opacity:0.6;}
	.st4{opacity:0.3;}
	.st5{fill:url(#SVGID_4_);}
	.st6{fill:url(#SVGID_5_);}
	.st7{fill:url(#SVGID_6_);}
	.st8{fill:url(#SVGID_7_);}
	.st9{fill:url(#SVGID_8_);}
	.st10{fill:url(#SVGID_9_);}
	.st11{fill:url(#SVGID_10_);}
	.st12{fill:url(#SVGID_11_);}
	.st13{fill:url(#SVGID_12_);}
	.st14{fill:url(#SVGID_13_);}
	.st15{fill:url(#SVGID_14_);}
	.st16{fill:url(#SVGID_15_);}
	.st17{fill:url(#SVGID_16_);}
	.st18{fill:url(#SVGID_17_);}
	.st19{fill:url(#SVGID_18_);}
	.st20{fill:url(#SVGID_19_);}
	.st21{fill:url(#SVGID_20_);}
	.st22{fill:url(#SVGID_21_);}
	.st23{fill:url(#SVGID_22_);}
	.st24{fill:url(#SVGID_23_);}
	.st25{fill:url(#SVGID_24_);}
	.st26{fill:url(#SVGID_25_);}
	.st27{fill:url(#SVGID_26_);}
	.st28{fill:url(#SVGID_27_);}
	.st29{fill:url(#SVGID_28_);}
	.st30{fill:url(#SVGID_29_);}
	.st31{fill:url(#SVGID_30_);}
	.st32{fill:url(#SVGID_31_);}
	.st33{fill:url(#SVGID_32_);}
	.st34{fill:url(#SVGID_33_);}
	.st35{fill:url(#SVGID_34_);}
	.st36{fill:url(#SVGID_35_);}
	.st37{fill:url(#SVGID_36_);}
	.st38{fill:url(#SVGID_37_);}
	.st39{fill:url(#SVGID_38_);}
	.st40{fill:url(#SVGID_39_);}
	.st41{fill:url(#SVGID_40_);}
	.st42{fill:url(#SVGID_41_);}
	.st43{fill:url(#SVGID_42_);}
	.st44{fill:url(#SVGID_43_);}
	.st45{fill:url(#SVGID_44_);}
	.st46{fill:url(#SVGID_45_);}
	.st47{fill:url(#SVGID_46_);}
	.st48{fill:url(#SVGID_47_);}
	.st49{fill:url(#SVGID_48_);}
	.st50{fill:url(#SVGID_49_);}
	.st51{fill:url(#SVGID_50_);}
	.st52{fill:url(#SVGID_51_);}
	.st53{fill:url(#SVGID_52_);}
	.st54{fill:url(#SVGID_53_);}
	.st55{fill:url(#SVGID_54_);}
	.st56{fill:url(#SVGID_55_);}
	.st57{fill:url(#SVGID_56_);}
	.st58{fill:url(#SVGID_57_);}
	.st59{fill:url(#SVGID_58_);}
	.st60{fill:url(#SVGID_59_);}
	.st61{fill:url(#SVGID_60_);}
	.st62{fill:url(#SVGID_61_);}
	.st63{fill:url(#SVGID_62_);}
	.st64{fill:url(#SVGID_63_);}
	.st65{fill:url(#SVGID_64_);}
	.st66{fill:url(#SVGID_65_);}
	.st67{fill:url(#SVGID_66_);}
	.st68{fill:url(#SVGID_67_);}
	.st69{fill:url(#SVGID_68_);}
	.st70{fill:url(#SVGID_69_);}
	.st71{fill:url(#SVGID_70_);}
	.st72{fill:url(#SVGID_71_);}
	.st73{fill:url(#SVGID_72_);}
	.st74{fill:url(#SVGID_73_);}
	.st75{fill:url(#SVGID_74_);}
	.st76{fill:url(#SVGID_75_);}
	.st77{fill:url(#SVGID_76_);}
	.st78{fill:url(#SVGID_77_);}
	.st79{fill:url(#SVGID_78_);}
	.st80{fill:url(#SVGID_79_);}
	.st81{fill:url(#SVGID_80_);}
	.st82{fill:url(#SVGID_81_);}
	.st83{fill:#231F20;}
	.st84{fill:#BE1E2D;}
	.st85{fill:#FFFFFF;}
	.st86{fill:none;stroke:#3F3B3C;stroke-miterlimit:10;}
	.st87{fill:url(#SVGID_82_);}
	.st88{fill:url(#SVGID_83_);}
	.st89{fill:url(#SVGID_84_);}
	.st90{fill:url(#SVGID_85_);}
	.st91{fill:url(#SVGID_86_);}
	.st92{fill:url(#SVGID_87_);}
	.st93{fill:url(#SVGID_88_);}
	.st94{fill:url(#SVGID_89_);}
	.st95{fill:url(#SVGID_90_);}
	.st96{fill:url(#SVGID_91_);}
	.st97{fill:url(#SVGID_92_);}
	.st98{fill:url(#SVGID_93_);}
	.st99{fill:url(#SVGID_94_);}
	.st100{fill:url(#SVGID_95_);}
	.st101{fill:url(#SVGID_96_);}
	.st102{fill:url(#SVGID_97_);}
	.st103{fill:url(#SVGID_98_);}
	.st104{fill:url(#SVGID_99_);}
	.st105{fill:url(#SVGID_100_);}
	.st106{fill:url(#SVGID_101_);}
	.st107{fill:url(#SVGID_102_);}
	.st108{fill:url(#SVGID_103_);}
	.st109{fill:url(#SVGID_104_);}
	.st110{fill:url(#SVGID_105_);}
	.st111{fill:url(#SVGID_106_);}
	.st112{fill:url(#SVGID_107_);}
	.st113{fill:url(#SVGID_108_);}
	.st114{fill:url(#SVGID_109_);}
	.st115{fill:url(#SVGID_110_);}
	.st116{fill:url(#SVGID_111_);}
	.st117{fill:url(#SVGID_112_);}
	.st118{fill:url(#SVGID_113_);}
	.st119{fill:url(#SVGID_114_);}
	.st120{fill:url(#SVGID_115_);}
	.st121{fill:url(#SVGID_116_);}
	.st122{fill:url(#SVGID_117_);}
	.st123{fill:url(#SVGID_118_);}
	.st124{fill:url(#SVGID_119_);}
	.st125{fill:url(#SVGID_120_);}
	.st126{fill:url(#SVGID_121_);}
	.st127{fill:url(#SVGID_122_);}
	.st128{fill:url(#SVGID_123_);}
	.st129{fill:url(#SVGID_124_);}
	.st130{fill:url(#SVGID_125_);}
	.st131{fill:url(#SVGID_126_);}
	.st132{fill:url(#SVGID_127_);}
	.st133{fill:url(#SVGID_128_);}
	.st134{fill:url(#SVGID_129_);}
	.st135{fill:url(#SVGID_130_);}
	.st136{fill:url(#SVGID_131_);}
	.st137{fill:url(#SVGID_132_);}
	.st138{fill:url(#SVGID_133_);}
	.st139{fill:url(#SVGID_134_);}
	.st140{fill:url(#SVGID_135_);}
	.st141{fill:url(#SVGID_136_);}
	.st142{fill:url(#SVGID_137_);}
	.st143{fill:url(#SVGID_138_);}
	.st144{fill:url(#SVGID_139_);}
	.st145{fill:url(#SVGID_140_);}
	.st146{fill:url(#SVGID_141_);}
	.st147{fill:url(#SVGID_142_);}
	.st148{fill:url(#SVGID_143_);}
	.st149{fill:url(#SVGID_144_);}
	.st150{fill:url(#SVGID_145_);}
	.st151{fill:url(#SVGID_146_);}
	.st152{fill:url(#SVGID_147_);}
	.st153{fill:url(#SVGID_148_);}
	.st154{fill:url(#SVGID_149_);}
	.st155{fill:url(#SVGID_150_);}
	.st156{fill:url(#SVGID_151_);}
	.st157{fill:url(#SVGID_152_);}
	.st158{fill:url(#SVGID_153_);}
	.st159{fill:url(#SVGID_154_);}
	.st160{fill:url(#SVGID_155_);}
	.st161{fill:url(#SVGID_156_);}
	.st162{fill:url(#SVGID_157_);}
	.st163{fill:url(#SVGID_158_);}
	.st164{fill:url(#SVGID_159_);}
	.st165{fill:url(#SVGID_160_);}
	.st166{fill:url(#SVGID_161_);}
	.st167{fill:url(#SVGID_162_);}
	.st168{fill:#161616;}
	.st169{fill:#010101;}
	.st170{fill:#050505;}
	.st171{fill:#030303;}
	.st172{fill:#060707;}
	.st173{fill:#353535;}
	.st174{fill:#171717;}
	.st175{fill:#2D2D2D;}
	.st176{fill:#515050;}
	.st177{fill:#939393;}
	.st178{fill:#131313;}
	.st179{fill:#20201F;}
	.st180{fill:#1B1C1C;}
	.st181{fill:#0F0F10;}
	.st182{fill:#969595;}
	.st183{fill:#111111;}
	.st184{fill:#3B3B3B;}
	.st185{fill:#1E1E1E;}
	.st186{fill:#1A1A1A;}
	.st187{fill:#141414;}
	.st188{fill:#575757;}
	.st189{fill:#5A5B5B;}
	.st190{fill:#8A8A8A;}
	.st191{fill:#747575;}
	.st192{fill:#313131;}
	.st193{fill:#B8B7B8;}
	.st194{fill:#616262;}
	.st195{fill:#999999;}
	.st196{fill:#B3B3B4;}
	.st197{fill:#0E0E0E;}
	.st198{fill:#2E2E2E;}
	.st199{fill:#787878;}
	.st200{fill:#181818;}
	.st201{fill:#2B2B2B;}
	.st202{fill:#7D7D7D;}
	.st203{fill:#828282;}
	.st204{fill:#828383;}
	.st205{fill:#272727;}
	.st206{fill:#9D9E9E;}
	.st207{fill:#868686;}
	.st208{fill:#808081;}
	.st209{fill:#A4A3A3;}
	.st210{fill:#A1A1A1;}
	.st211{fill:#212120;}
	.st212{fill:#767576;}
	.st213{fill:#818282;}
	.st214{fill:#B9B9BA;}
	.st215{fill:#C3C3C3;}
	.st216{fill:#101010;}
	.st217{fill:#434343;}
	.st218{fill:#B9B8B9;}
</style>
<g id="Layer_2">
</g>
<g id="Layer_1">
	<g>
		<polygon class="st85" points="50,94.8 11,73.3 11,28.2 50,5.2 89,28.2 89,73.3 		"/>
		<polygon points="88.1,72.3 88.1,49.9 72.1,40.4 72.1,81.3 		"/>
		<polygon points="70.1,81.7 50,93.2 33.7,84 70.1,63.3 		"/>
		<polygon points="32,82.9 12.6,72.3 12.6,53.6 48,73.8 		"/>
		<polygon points="87.4,29.1 68,17.6 52.3,26.9 87.4,47.7 		"/>
		<polygon points="12.6,51.5 12.6,29.1 28.7,19.6 28.7,60.6 		"/>
		<polygon points="50,7 30.7,18.4 30.7,37.1 65.8,16.4 		"/>
		<g>
			<path class="st85" d="M18.6,50.7h-1.3v-3.9h1.3v1.2h4.7v1.6h-4.7V50.7z"/>
			<path class="st85" d="M17.3,44.9h2v0c-0.2-0.1-0.4-0.3-0.5-0.5c-0.1-0.2-0.1-0.4-0.1-0.6c0-0.2,0-0.3,0.1-0.5
				c0-0.1,0.1-0.3,0.2-0.4c0.1-0.1,0.2-0.2,0.4-0.3c0.2-0.1,0.4-0.1,0.6-0.1h3.4v1.5h-3c-0.2,0-0.3,0-0.4,0.1
				c-0.1,0.1-0.1,0.2-0.1,0.3s0,0.2,0.1,0.3c0.1,0.1,0.2,0.1,0.4,0.1h3v1.5h-6V44.9z"/>
			<path class="st85" d="M23.1,39.9c-0.1,0-0.2,0-0.3,0v0c0.2,0.1,0.4,0.2,0.5,0.4c0.1,0.2,0.2,0.4,0.2,0.6c0,0.2,0,0.4-0.1,0.6
				c-0.1,0.2-0.1,0.3-0.3,0.4c-0.1,0.1-0.3,0.2-0.4,0.2c-0.2,0-0.3,0.1-0.5,0.1c-0.2,0-0.4,0-0.6-0.1c-0.2,0-0.3-0.1-0.4-0.2
				c-0.1-0.1-0.2-0.2-0.3-0.4c-0.1-0.2-0.2-0.4-0.2-0.6l-0.1-0.6c0-0.2-0.1-0.3-0.2-0.3c-0.1-0.1-0.2-0.1-0.3-0.1
				c-0.3,0-0.4,0.1-0.4,0.4c0,0.1,0,0.3,0.1,0.3c0.1,0.1,0.2,0.1,0.5,0.1v1.3c-0.3,0-0.6-0.1-0.8-0.2c-0.2-0.1-0.4-0.3-0.5-0.4
				c-0.1-0.2-0.2-0.4-0.2-0.6c0-0.2-0.1-0.4-0.1-0.6c0-0.3,0-0.5,0.1-0.7s0.1-0.4,0.2-0.6c0.1-0.2,0.3-0.3,0.4-0.4
				c0.2-0.1,0.4-0.1,0.7-0.1h2.2c0.2,0,0.4,0,0.6,0c0.2,0,0.3-0.1,0.4-0.1v1.5C23.2,39.9,23.1,39.9,23.1,39.9z M22.2,40
				c-0.1-0.1-0.3-0.1-0.6-0.1h-0.5v0c0.1,0,0.1,0.1,0.1,0.2c0,0.1,0,0.2,0.1,0.3c0.1,0.1,0.1,0.2,0.2,0.2c0.1,0,0.2,0.1,0.4,0.1
				s0.3,0,0.4-0.1c0.1-0.1,0.1-0.2,0.1-0.3C22.4,40.2,22.3,40.1,22.2,40z"/>
			<path class="st85" d="M18.7,37.6h-1.3v-1.5h1.3v-0.6h1v0.6h2.2c0.1,0,0.2,0,0.3-0.1s0.1-0.2,0.1-0.3v-0.2h1c0,0.1,0,0.3,0,0.4
				c0,0.1,0,0.3,0,0.4c0,0.2,0,0.4,0,0.6c0,0.2-0.1,0.3-0.1,0.4c-0.1,0.1-0.2,0.2-0.4,0.2s-0.4,0.1-0.6,0.1h-2.4v0.5h-1V37.6z"/>
			<path class="st85" d="M17.3,33.7h1.5c0.5,0,1,0.1,1.2,0.3s0.4,0.6,0.4,1.1h-0.7c0-0.2-0.1-0.3-0.2-0.4c-0.1-0.1-0.3-0.1-0.5-0.1
				h-0.1v0.5h-1.6V33.7z"/>
			<path class="st85" d="M22.1,31.9c0.1,0,0.1,0,0.2-0.1c0.1-0.1,0.2-0.2,0.2-0.3c0-0.1,0-0.2-0.1-0.3s-0.2-0.1-0.3-0.1
				c-0.1,0-0.2,0.1-0.3,0.2s-0.1,0.2-0.2,0.4c-0.1,0.2-0.1,0.3-0.2,0.5c-0.1,0.2-0.1,0.4-0.3,0.5c-0.1,0.2-0.3,0.3-0.4,0.4
				c-0.2,0.1-0.4,0.2-0.7,0.2c-0.2,0-0.4,0-0.6-0.1c-0.2-0.1-0.3-0.2-0.5-0.3c-0.1-0.1-0.2-0.3-0.3-0.6c-0.1-0.2-0.1-0.5-0.1-0.8
				c0-1.1,0.5-1.7,1.4-1.7v1.3c-0.2,0-0.3,0-0.4,0.1c-0.1,0.1-0.1,0.2-0.1,0.3c0,0.1,0,0.2,0.1,0.3c0.1,0.1,0.1,0.1,0.3,0.1
				c0.1,0,0.2-0.1,0.3-0.2c0.1-0.1,0.1-0.2,0.2-0.4c0.1-0.2,0.1-0.3,0.2-0.5c0.1-0.2,0.1-0.4,0.2-0.5c0.1-0.2,0.2-0.3,0.4-0.4
				s0.4-0.2,0.7-0.2c0.2,0,0.4,0,0.6,0.1c0.2,0.1,0.3,0.2,0.5,0.4c0.1,0.2,0.2,0.3,0.3,0.6c0.1,0.2,0.1,0.5,0.1,0.8
				c0,0.6-0.1,1.1-0.4,1.4c-0.3,0.3-0.6,0.4-1.1,0.4V32C22,32,22.1,31.9,22.1,31.9z"/>
		</g>
		<g>
			<path class="st85" d="M40.8,22.2l1.6,2.8l-0.9,0.5l-0.3-0.4l0,0c0,0.1,0,0.3,0,0.4c0,0.1-0.1,0.2-0.2,0.3
				c-0.1,0.1-0.2,0.2-0.3,0.3c-0.1,0.1-0.2,0.2-0.3,0.2c-0.3,0.2-0.6,0.3-0.9,0.3c-0.3,0-0.5-0.1-0.7-0.2c-0.2-0.2-0.5-0.4-0.7-0.7
				c-0.2-0.3-0.5-0.7-0.7-1.1c-0.3-0.4-0.5-0.8-0.6-1.2s-0.2-0.7-0.2-1c0-0.3,0.1-0.6,0.3-0.9c0.2-0.3,0.5-0.5,0.9-0.7
				c0.2-0.1,0.5-0.2,0.7-0.3c0.2-0.1,0.5-0.1,0.7,0c0.2,0.1,0.4,0.2,0.7,0.3c0.2,0.2,0.4,0.4,0.6,0.7l-1.3,0.8
				c-0.2-0.3-0.3-0.5-0.4-0.6c-0.1-0.1-0.3-0.1-0.4,0c-0.1,0.1-0.2,0.1-0.2,0.2c0,0.1,0,0.2,0,0.4c0,0.2,0.1,0.3,0.3,0.6
				c0.1,0.2,0.3,0.5,0.5,0.9s0.4,0.6,0.5,0.9c0.1,0.2,0.3,0.4,0.4,0.5c0.1,0.1,0.2,0.2,0.3,0.2c0.1,0,0.2,0,0.3-0.1
				c0.1,0,0.1-0.1,0.2-0.2c0-0.1,0.1-0.1,0-0.2c0-0.1,0-0.2-0.1-0.4c-0.1-0.2-0.2-0.3-0.3-0.6l-0.5,0.3l-0.5-0.9L40.8,22.2z"/>
			<path class="st85" d="M45.4,21.6c0.1,0.3,0.2,0.5,0.2,0.8c0,0.3-0.1,0.5-0.2,0.8c-0.2,0.2-0.4,0.5-0.8,0.7
				c-0.4,0.2-0.7,0.3-1,0.4s-0.5,0-0.8-0.1c-0.2-0.1-0.4-0.3-0.6-0.5c-0.2-0.2-0.4-0.5-0.5-0.8c-0.2-0.3-0.3-0.5-0.4-0.8
				c-0.1-0.3-0.2-0.5-0.2-0.8s0.1-0.5,0.2-0.8c0.1-0.2,0.4-0.5,0.8-0.7c0.4-0.2,0.7-0.3,1-0.4c0.3,0,0.5,0,0.8,0.2
				c0.2,0.1,0.4,0.3,0.6,0.5c0.2,0.2,0.3,0.5,0.5,0.8C45.2,21.1,45.3,21.4,45.4,21.6z M43.4,22.6c0.1,0.2,0.2,0.3,0.3,0.3
				c0.1,0.1,0.2,0.1,0.2,0.1c0.1,0,0.1,0,0.2-0.1s0.1-0.1,0.2-0.2c0-0.1,0-0.1,0-0.3c0-0.1-0.1-0.2-0.2-0.4
				c-0.1-0.2-0.2-0.4-0.3-0.6c-0.1-0.2-0.3-0.4-0.4-0.6c-0.1-0.2-0.2-0.3-0.3-0.3c-0.1-0.1-0.2-0.1-0.2-0.1s-0.1,0-0.2,0.1
				c-0.1,0-0.1,0.1-0.1,0.2c0,0.1,0,0.1,0,0.3c0,0.1,0.1,0.2,0.2,0.4c0.1,0.2,0.2,0.4,0.3,0.6C43.2,22.3,43.3,22.5,43.4,22.6z"/>
			<path class="st85" d="M49,19.5c0.1,0.3,0.2,0.5,0.2,0.8c0,0.3-0.1,0.5-0.2,0.8c-0.2,0.2-0.4,0.5-0.8,0.7c-0.4,0.2-0.7,0.3-1,0.4
				s-0.5,0-0.8-0.1c-0.2-0.1-0.4-0.3-0.6-0.5c-0.2-0.2-0.3-0.5-0.5-0.8c-0.2-0.3-0.3-0.5-0.4-0.8c-0.1-0.3-0.2-0.5-0.2-0.8
				c0-0.3,0.1-0.5,0.2-0.8c0.1-0.2,0.4-0.5,0.8-0.7c0.4-0.2,0.7-0.3,1-0.4c0.3,0,0.5,0,0.8,0.2c0.2,0.1,0.4,0.3,0.6,0.5
				c0.2,0.2,0.3,0.5,0.5,0.8C48.8,19,48.9,19.2,49,19.5z M47,20.5c0.1,0.2,0.2,0.3,0.3,0.3c0.1,0.1,0.2,0.1,0.2,0.1
				c0.1,0,0.1,0,0.2-0.1s0.1-0.1,0.2-0.2c0-0.1,0-0.1,0-0.3c0-0.1-0.1-0.2-0.2-0.4c-0.1-0.2-0.2-0.4-0.3-0.6
				c-0.1-0.2-0.3-0.4-0.4-0.6c-0.1-0.2-0.2-0.3-0.3-0.3c-0.1-0.1-0.2-0.1-0.2-0.1s-0.1,0-0.2,0.1c-0.1,0-0.1,0.1-0.1,0.2
				c0,0.1,0,0.1,0,0.3c0,0.1,0.1,0.2,0.2,0.4s0.2,0.4,0.3,0.6C46.8,20.2,46.9,20.4,47,20.5z"/>
			<path class="st85" d="M50.4,13.4l3,5.2l-1.3,0.7l-0.3-0.5l0,0c0,0.3,0,0.5-0.1,0.7c-0.1,0.2-0.2,0.3-0.5,0.5
				c-0.4,0.3-0.8,0.3-1.2,0c-0.4-0.2-0.8-0.7-1.2-1.5c-0.2-0.4-0.4-0.7-0.5-1c-0.1-0.3-0.1-0.5-0.1-0.8c0-0.2,0.1-0.4,0.2-0.6
				c0.1-0.2,0.3-0.3,0.4-0.4c0.2-0.1,0.4-0.2,0.6-0.2c0.2,0,0.4,0.1,0.6,0.2l0,0l-1-1.7L50.4,13.4z M50.6,18.3
				c0.1,0.1,0.2,0.2,0.3,0.3c0.1,0.1,0.1,0.1,0.2,0.1c0.1,0,0.1,0,0.2-0.1c0.1,0,0.1-0.1,0.2-0.2c0-0.1,0-0.1,0-0.2
				c0-0.1-0.1-0.2-0.1-0.4c-0.1-0.1-0.2-0.3-0.3-0.5c-0.1-0.2-0.2-0.4-0.3-0.5c-0.1-0.1-0.2-0.2-0.3-0.3s-0.1-0.1-0.2-0.1
				c-0.1,0-0.1,0-0.2,0.1c-0.1,0-0.1,0.1-0.2,0.2c0,0.1,0,0.1,0,0.2c0,0.1,0.1,0.2,0.1,0.4c0.1,0.1,0.2,0.3,0.3,0.5
				C50.4,18,50.5,18.2,50.6,18.3z"/>
		</g>
		<g>
			<path class="st85" d="M67.8,23.4l-1.3,3.3l0,0l2.3-2.7l1.9,1.1l-3,5.1l-1.2-0.7l2.3-3.8l0,0l-3,3.4l-1-0.6l1.6-4.2l0,0l-2.3,3.8
				l-1.2-0.7l3-5.1L67.8,23.4z"/>
			<path class="st85" d="M72,31.3c-0.2,0.2-0.4,0.4-0.6,0.5c-0.2,0.1-0.5,0.2-0.8,0.2c-0.3,0-0.6-0.1-1-0.3
				c-0.4-0.2-0.6-0.5-0.8-0.7c-0.2-0.2-0.2-0.5-0.2-0.7c0-0.2,0.1-0.5,0.2-0.8s0.3-0.5,0.4-0.8c0.2-0.3,0.3-0.5,0.5-0.7
				c0.2-0.2,0.4-0.4,0.6-0.5c0.2-0.1,0.5-0.2,0.8-0.2c0.3,0,0.6,0.1,1,0.3c0.4,0.2,0.6,0.5,0.8,0.7c0.2,0.2,0.2,0.5,0.2,0.7
				c0,0.3-0.1,0.5-0.2,0.8c-0.1,0.3-0.3,0.5-0.4,0.8C72.4,30.8,72.2,31,72,31.3z M70.2,30c-0.1,0.2-0.1,0.3-0.2,0.4
				c0,0.1,0,0.2,0,0.3s0.1,0.1,0.1,0.2s0.1,0.1,0.2,0.1c0.1,0,0.1,0,0.2-0.1c0.1-0.1,0.2-0.2,0.3-0.3c0.1-0.1,0.2-0.3,0.4-0.6
				c0.1-0.2,0.3-0.4,0.3-0.6c0.1-0.2,0.1-0.3,0.2-0.4c0-0.1,0-0.2,0-0.3c0-0.1-0.1-0.1-0.1-0.2s-0.1-0.1-0.2-0.1
				c-0.1,0-0.1,0-0.2,0.1c-0.1,0.1-0.2,0.2-0.3,0.3c-0.1,0.2-0.2,0.3-0.4,0.6S70.3,29.8,70.2,30z"/>
			<path class="st85" d="M75.3,29.6L75,30.1l0,0c0.4-0.3,0.8-0.3,1.3,0c0.1,0.1,0.3,0.2,0.4,0.3c0.1,0.1,0.2,0.2,0.2,0.4
				c0,0.1,0,0.3,0,0.4s-0.1,0.4-0.2,0.6L75,34.6l-1.3-0.8l1.5-2.5c0.1-0.2,0.1-0.3,0.1-0.4c0-0.1-0.1-0.2-0.2-0.3
				c-0.1-0.1-0.2-0.1-0.3,0c-0.1,0-0.2,0.1-0.3,0.3l-1.5,2.5l-1.3-0.8l2.3-3.9L75.3,29.6z"/>
			<path class="st85" d="M77.4,34.4c-0.1,0.2-0.2,0.4-0.1,0.5s0.1,0.2,0.2,0.2c0.1,0.1,0.2,0.1,0.3,0s0.3-0.2,0.4-0.5l1.2,0.7
				c-0.3,0.5-0.6,0.8-1,0.9c-0.4,0.1-0.8,0-1.4-0.3c-0.3-0.2-0.5-0.4-0.7-0.6c-0.2-0.2-0.3-0.4-0.3-0.6c0-0.2,0-0.5,0.1-0.8
				c0.1-0.3,0.3-0.6,0.5-1c0.2-0.4,0.4-0.7,0.7-0.9c0.2-0.2,0.4-0.4,0.7-0.5c0.2-0.1,0.5-0.1,0.7,0c0.3,0.1,0.5,0.2,0.8,0.3
				c0.3,0.2,0.5,0.3,0.6,0.5c0.2,0.2,0.3,0.4,0.3,0.6c0,0.2,0,0.5,0,0.7s-0.2,0.6-0.4,0.9L79.6,35l-1.9-1.1L77.4,34.4z M79.1,33
				c0-0.1-0.1-0.2-0.2-0.3c-0.1-0.1-0.3-0.1-0.4,0c-0.1,0.1-0.2,0.2-0.3,0.4l-0.1,0.2l0.7,0.4l0.1-0.2C79,33.3,79.1,33.1,79.1,33z"
				/>
			<path class="st85" d="M79,37.4c0,0,0.1,0.1,0.1,0.1c0.1,0,0.2,0.1,0.2,0.1c0.1,0,0.1,0,0.2,0c0.1,0,0.1,0,0.1-0.1
				c0,0,0.1,0,0.1-0.1c0,0,0-0.1,0-0.1c0-0.1,0-0.1,0.1-0.2L81,33l1.3,0.8l-1.2,2.8l0,0l1.9-2.4l1.3,0.8l-3.4,3.3
				c-0.2,0.2-0.4,0.3-0.5,0.4c-0.2,0.1-0.3,0.2-0.5,0.2c-0.2,0-0.3,0-0.5,0c-0.2,0-0.3-0.1-0.5-0.2c-0.1-0.1-0.3-0.2-0.4-0.2
				c-0.1-0.1-0.2-0.1-0.3-0.2l0.5-0.9C78.9,37.4,78.9,37.4,79,37.4z"/>
		</g>
		<g>
			<path class="st169" d="M62.8,48c0-0.4,0-0.9,0-1.3c-0.1-0.7,0.2-1.2,1-1.2c0.7,0,1,0.5,1,1.2c0,4.7,0,9.3,0,14c0,1.2-1.2,1.2-2,2
				c0-4.9,0-9.4,0-13.9C62.8,48.6,62.8,48.3,62.8,48z"/>
			<path class="st169" d="M37.3,49c0,0.1,0,0.2,0,0.3c0.3,3.9,0.1,7.9,0.1,11.8c0,0.3-0.2,0.5-0.5,0.5c-1.3-0.5-1.7-1.3-1.7-2.7
				c0.1-3.8,0.1-7.6,0.1-11.4c0-0.9-0.2-2,1-2c1.4,0,0.8,1.2,0.9,2c0,0.2,0,0.3,0,0.5c0.1,0.1,0.2,0.2,0.2,0.3
				C37.4,48.5,37.3,48.7,37.3,49z"/>
			<path class="st170" d="M48.1,46c0.2-1.9,0.9-2.7,2.1-2.4c1.8,0.3,1.8,1.7,1.5,3.1c-0.3,0.4-0.4,1-0.8,1.3
				c-0.1,0.1-0.2,0.2-0.4,0.2c-0.2,0.1-0.4,0.1-0.6,0.1c-0.2,0-0.4,0-0.6-0.1c-0.1,0-0.3-0.1-0.3-0.2c-0.1-0.4-0.8-0.1-0.8-0.7
				C48.5,46.8,47.7,46.4,48.1,46z"/>
			<path class="st171" d="M46.9,58.5c-0.6-0.9-1.2-1.8-1.8-2.7c-0.5-0.8-0.4-1.4,0.3-1.9c0.2-0.4,0.5-0.7,1-0.9c0.4,0,0.7,0.1,1,0.4
				c0.1,0.1,0.1,0.3,0.1,0.4c0,0.5-0.1,1,0.4,1.4c0.3,0.2,0.5,0.5,0.6,0.9c-0.2,0.2-0.2,0.4,0.1,0.5c0.1,0.4,0,0.8,0,1.3
				c0,0.3-0.2,0.5-0.4,0.7c-0.2,0.2-0.5,0.3-0.8,0.4C47.2,59,47,58.9,46.9,58.5z"/>
			<path class="st172" d="M55.1,55.3c-0.5,1.5-1.9,2.4-2.2,4c-0.2,0-0.4,0-0.7-0.1c-0.1-0.1-0.3-0.1-0.4-0.2
				c-0.4-0.3-0.6-0.7-0.7-1.2c-0.1-0.4-0.1-0.8,0-1.2c0.3-1,1.1-1.7,1.4-2.8c0.2-0.4,0.6-0.5,1.1-0.5c0.3,0.1,0.6,0.2,0.9,0.4
				C54.9,54.2,54.9,54.8,55.1,55.3z"/>
			<path class="st168" d="M46.5,53.3c-0.3,0.3-0.5,0.7-1,0.7c-0.6,0-1.3,0.1-1.9,0.1c-0.7-0.2-1.1-0.6-1-1.4c0.4-0.5,1-0.3,1.5-0.6
				c0.4-0.2,0.8-0.6,1.3-0.5C47.2,51.9,47.3,52.1,46.5,53.3z"/>
			<path class="st173" d="M60.1,50.9c0-0.2,0-0.4-0.1-0.7c0.7-0.3,0.8,0.3,1.1,0.7c0.5,0.9,1,1.7,1,2.7c0,0.5-0.1,0.9-0.6,0.9
				c-0.2-0.1-0.3-0.3-0.4-0.4c-0.3-0.4-0.6-0.1-1-0.1c-0.2-0.1-0.4-0.2-0.5-0.4c0-0.1,0-0.3,0-0.4C59.6,52.4,60.6,51.8,60.1,50.9z"
				/>
			<path class="st174" d="M42.9,47.9c1.6,0,3.3,0,4.9,0.1c0.3,0.4,0.3,0.7,0,1.1c-1.6,0.6-3.1,0.6-4.6-0.1
				C42.9,48.7,42.7,48.4,42.9,47.9z"/>
			<path class="st175" d="M38.6,51.6c0.1-0.2,0.3-0.4,0.4-0.7c0.4-0.5,0.5-1.4,1.5-0.9c0.3,0.5,0.2,1,0.3,1.5c0,0.6,0,1.2-0.1,1.8
				c-0.1,0.2-0.1,0.3-0.3,0.4C38.3,53.6,38.1,53.3,38.6,51.6z"/>
			<path class="st176" d="M38.6,51.6c-0.6,1.6,1.2,1.5,1.6,2.3c0,0.1,0.1,0.1,0.1,0.2c0.1,0.3,0,0.6,0,0.9c-0.7-0.1-1.5,0.6-2-0.5
				C37.7,53.4,37.8,52.5,38.6,51.6z"/>
			<path class="st177" d="M36.9,61.6c0.6-0.4,0.3-1,0.3-1.5c0-3.6,0.1-7.2,0.1-10.8c0.5,2.5,0.1,5,0.2,7.5c0.1,1.7,0,3.4,0,5.1
				c0,0,0,0,0,0C37.3,61.8,37,61.9,36.9,61.6z"/>
			<path class="st178" d="M39.7,48.6c0.7-1.1,1.6-1.5,2.9-1c-0.1,0.5,0.2,0.9,0.4,1.3c-0.9,1.2-1.9,0.6-2.8,0
				C40,48.8,39.8,48.7,39.7,48.6z"/>
			<path class="st179" d="M56.8,48.9c-1.3,0-2.6,0-3.9,0.1c-0.7,0-1-0.2-0.7-1c0.1,0,0.2,0,0.3,0c1.5,0.3,2.9,0,4.4,0.1
				c0.3,0,0.6,0,0.6,0.4C57.4,48.8,57,48.8,56.8,48.9z"/>
			<path class="st180" d="M40.2,53.9c0-0.1,0-0.3,0-0.4c0.4-0.4,1-0.6,1.5-0.8c0.2-0.1,0.4-0.2,0.6-0.2c0.1,0,0.1,0.1,0.2,0.1
				c0.3,0.5,0.7,0.9,1,1.4c0.1,0.3,0,0.6-0.4,0.5c-0.1,0-0.2,0-0.2,0c-0.7,0.1-1.4,0.1-2.1,0C40.6,54.4,40.4,54.2,40.2,53.9
				L40.2,53.9z"/>
			<path class="st181" d="M60.1,49c-0.8,0.2-1.4,0.9-2.3,0.3c-0.4-0.6,0-0.9,0.3-1.3c0.8-0.5,1.4-0.1,2,0.4c0.3,0.1,0.3,0.2,0.3,0.5
				l0,0.1C60.3,49.1,60.2,49.1,60.1,49z"/>
			<path class="st182" d="M55.1,55.3c-0.5-0.3-0.7-0.9-1-1.3c1.1-0.6,2.4-0.8,3.6-1c0.2,0,0.3,0.1,0.5,0.1c0.1,0.1,0.2,0.2,0.3,0.3
				c0,0.7-1.2,0.5-1,1.4c0,0.2-0.1,0.3-0.3,0.3c-0.3,0-0.4-0.1-0.5-0.3C56.1,54.6,55.4,54.2,55.1,55.3z"/>
			<path class="st183" d="M60.4,48.8c-0.1-0.2-0.2-0.3-0.3-0.5c0.8-0.6,1.8-0.2,2.7-0.3c0.2,0.2,0.7,0,0.6,0.5
				c-0.1,0.4-0.5,0.2-0.6,0.3C62,48.9,61.2,48.9,60.4,48.8z"/>
			<path class="st184" d="M58.1,47.9c-0.1,0.4-0.2,0.9-0.3,1.3c-0.3-0.1-0.7-0.2-1-0.4c0.1-0.2,0.9-0.5-0.1-0.6
				c-1.4-0.1-2.8,0.3-4.2-0.3C54.3,48,56.2,48,58.1,47.9z"/>
			<path class="st185" d="M52.8,60.9c0.2,0.6-0.2,0.6-0.6,0.7c-0.5,0.1-1,0.3-1.4-0.2c-0.1-0.6,0.2-1,0.3-1.5c0.2-0.5,0.1-1.4,1.1-1
				l0,0C52.8,59.4,52.1,60.4,52.8,60.9z"/>
			<path class="st186" d="M40.2,53.9c0.2,0.1,0.5,0.2,0.7,0.4c0.7,0.4,1.5-0.1,2.3,0.3c0,0,0,0,0,0c-0.8,1.3-1.9,0.6-2.9,0.4
				C39.7,54.7,40.1,54.3,40.2,53.9z"/>
			<path class="st187" d="M47.5,58.8c0.2-0.1,0.4-0.2,0.7-0.2c0.1,0.1,0.2,0.2,0.3,0.3c0.1,0.5,0.2,0.9,0.5,1.3
				c0.1,0.2,0.1,0.4,0.1,0.6c-0.2,0.3,0.1,0.9-0.6,0.9c-0.2,0-0.4-0.1-0.6-0.1c-0.5-0.5-0.5-1.1-0.6-1.7
				C47.2,59.4,47.2,59.1,47.5,58.8z"/>
			<path class="st188" d="M39.7,48.6c0.2,0,0.4,0,0.5,0c0.3,0.4,0.9,0.9,0,1.3c-0.4,0.3-0.9,0.7-1.3,1c-0.3-0.9,1-1.4,0.6-2.3
				C39.6,48.6,39.7,48.6,39.7,48.6L39.7,48.6z"/>
			<path d="M56.7,54.7c0.2,0,0.5,0.1,0.7,0.1c0.8-0.5,1.7-0.6,2.6-0.3c0.2,0.2,0.2,0.5,0.1,0.7C58.9,55.3,57.7,56.2,56.7,54.7z"/>
			<path class="st185" d="M47.5,58.8c0,0.4,0,0.7,0,1.1c-0.3,0.4,0.8,1.2-0.4,1.4c-0.3-0.9-0.9-1.8-0.2-2.7
				C47.1,58.6,47.3,58.7,47.5,58.8z"/>
			<path class="st189" d="M60.1,49c0.1-0.1,0.2-0.1,0.3,0c0.3,0.6,1.1,1.1,0.7,2c-0.4-0.2-0.7-0.4-1.1-0.7
				C59.5,49.8,59.9,49.4,60.1,49z"/>
			<path class="st190" d="M48.5,61.6c0.6,0-0.2-0.7,0.4-0.8c0.2-0.1,0.3-0.2,0.5-0.1c0.1,0,0.2,0.1,0.3,0.2c0.3,0.2,0.6,0.1,0.9,0.1
				c0.1,0,0.3,0.1,0.3,0.2c0.2,0.8,0.9,0.1,1.3,0.4C50.9,62.1,49.7,62,48.5,61.6z"/>
			<path class="st191" d="M52.8,60.9c-0.3,0-0.9,0.7-0.8-0.3c0.1-0.6,0.1-1.2,0.1-1.7c0.4-0.1,0.6,0,0.8,0.4
				C52.9,59.8,52.8,60.3,52.8,60.9z"/>
			<path class="st174" d="M60.1,55.2c0-0.2,0-0.3,0-0.5c0-0.1,0-0.3,0-0.4c0.4-0.3,0.6-0.8,1.2-0.5c0,0.3,0,0.5,0.1,0.8
				C61.4,55.7,60.5,55,60.1,55.2z"/>
			<path class="st192" d="M37.3,48.4c0-0.1,0-0.3,0-0.4c0.8,0.3,2-0.8,2.5,0.7c0,0-0.1,0-0.1,0s-0.1,0.1-0.1,0.1
				c-0.1,0-0.2,0-0.3,0.1C38.6,48.7,37.8,49.2,37.3,48.4z"/>
			<path class="st192" d="M51.8,47.6c-0.2,0.2-0.4,0.5-0.6,0.7c-0.2,0-0.3-0.2-0.3-0.4c0-0.7,0.4-1.1,1-1.3
				C51.8,47,51.8,47.3,51.8,47.6z"/>
			<path class="st193" d="M47.8,48.8c0-0.3,0-0.6,0-0.9c0.4,0.1,0.8,0.3,1.2,0c0,0,0.1-0.1,0.1-0.1l0.1,0c0.2,1.2-0.5,1.3-1.4,1.4
				C47.7,49.1,47.7,49,47.8,48.8z"/>
			<path class="st194" d="M47.1,61.2c0.8-0.3-0.2-1.1,0.4-1.4c0.5,0.4,0.2,1.1,0.4,1.6C47.6,61.5,47.3,61.5,47.1,61.2z"/>
			<path class="st195" d="M37.3,48.4c0.6,0.7,1.4,0.2,2,0.3c-0.6,0.5-1.3,0.2-2,0.2c-0.1-0.1-0.2-0.3-0.3-0.4
				C37,48.5,37.1,48.4,37.3,48.4z"/>
			<path class="st188" d="M42.9,48.6c-0.9-0.1-0.7-0.6-0.3-1.1c0.1,0.1,0.2,0.2,0.3,0.3c0.1,0.2,0.2,0.5,0.3,0.7l-0.1,0.1L42.9,48.6
				z"/>
			<path class="st196" d="M48.1,46c0,0.5,0.7,0.9,0.1,1.4C47.9,46.9,47.5,46.4,48.1,46z"/>
			<path class="st197" d="M50.8,48c0.1,0.1,0.2,0.3,0.3,0.4c0.6,0.6,1.3,1.3,1.9,1.9c0.4-0.2,0.5,0.1,0.4,0.4
				c-0.1,0.5-0.4,0.7-0.7,1.1c-0.5,0.5-0.1,1.1-0.1,1.6c0,0.2-0.1,0.5-0.1,0.7c-0.8,1.4-1.5,0.4-2.2-0.1c-0.4-0.9-0.3-1.8-0.1-2.7
				c0.2-0.6,0.2-1.2,0-1.7c-0.1-0.5-0.1-1.1,0.2-1.5C50.6,48,50.7,48,50.8,48z"/>
			<path class="st174" d="M47.9,49.4c0.4-0.5,1.2-0.6,1.3-1.4c0.2,0,0.5,0,0.7,0c0.4,0.5,0.2,1.1,0.4,1.6c0.1,0.2,0.1,0.5,0,0.7
				c-0.1,0.2-0.3,0.4-0.5,0.4c-0.4,0-0.4-0.4-0.6-0.6c0-0.2-0.2,0.2,0,0c0.3,0.5,0.1,0.9-0.2,1.3c-0.4,0.3-0.7,0.7-1.2,0.6
				c-0.9-0.5-1.3-1.1-0.9-2.2C47.1,49.5,47.4,49.3,47.9,49.4z"/>
			<path class="st193" d="M50.2,49.6c-0.4-0.5-0.2-1.1-0.3-1.6c0.2,0,0.4,0,0.6,0c0,0.5,0,1.1,0,1.6C50.3,49.7,50.2,49.7,50.2,49.6z
				"/>
			<path class="st186" d="M52.5,51.6c0-0.5,1-0.7,0.6-1.4c0.1-0.4,0.4-0.3,0.7-0.3c0.5,0.2,0.9,0.5,1.3,0.8c0.1,0.1,0.2,0.2,0.3,0.4
				c0.1,0.3,0.1,0.6-0.1,0.9c-0.3,0.3-0.8,0.3-1.2,0.6c-0.5,0.2-0.6,1-1.3,0.6C52.5,52.7,52.1,52.2,52.5,51.6z"/>
			<path class="st198" d="M55.2,51.9c0-0.3,0-0.7,0-1c0.1-0.5,0.6-0.5,1-0.6c0.3,0.3,0.7,0.6,1,0.9c0.5,0.4,0.7,0.8,0.3,1.4
				C56.6,52.8,55.7,52.9,55.2,51.9z"/>
			<path class="st199" d="M60.1,50.9c0.6,0.8,0.1,1.6-0.3,2.3c-0.1,0.1-0.2,0.2-0.4,0.1c-0.4-0.3-0.7-0.6-0.8-1
				c0.1-0.2,0.2-0.4,0.5-0.4C60.3,52.5,59.7,51.2,60.1,50.9z"/>
			<path class="st175" d="M56.1,50.3c-0.3,0.2-0.6,0.4-1,0.6c-0.1,0-0.3,0-0.4,0c-0.1-0.3-0.4-0.6-0.2-0.9c0.2-0.4,0.6-0.2,1-0.1
				C55.7,50,55.9,50.2,56.1,50.3z"/>
			<path class="st170" d="M59.1,51.9c-0.1,0.1-0.2,0.3-0.3,0.4c-0.2,0.2-0.5,0.2-0.8,0.1c-0.2-0.3-0.8-0.6-0.2-1.1
				C58.4,51.3,58.9,51.2,59.1,51.9z"/>
			<path class="st182" d="M55.5,49.9c-0.9-0.2-1.1,0.2-0.8,1c-0.3-0.3-0.6-0.6-0.9-0.9C54.3,49.6,54.9,49.4,55.5,49.9z"/>
			<path class="st178" d="M47.8,51.9c0.4-0.2,0.5-0.7,1.1-0.7c0.4-0.1,0.7-0.7,1.1-0.2c0.2,0.5,0.1,1,0.1,1.5c0,0.8,0,1.5,0.3,2.3
				c0.1,0.3,0,0.7-0.2,1c-0.2,0.2-0.4,0.2-0.7,0.2c-0.5-0.4-0.6-1.5-1.6-1.2c-0.7-0.1-0.5-0.5-0.5-1c0-0.1,0-0.1,0-0.2
				C47.1,53,47.2,52.4,47.8,51.9z"/>
			<path class="st200" d="M47.8,51.9c-0.1,0.6-0.2,1.1-0.4,1.7c-0.3-0.1-0.7-0.2-1-0.4c0.9-1.6-1-1.1-1.3-1.7
				C45,51.4,45,51.2,45,50.9c0.2-0.4,0.5-0.7,0.8-0.9c0.4-0.3,0.9-0.5,1.4-0.1C46.7,50.8,47.5,51.3,47.8,51.9z"/>
			<path class="st201" d="M49.5,55.9c0.2,0,0.4,0,0.5,0c0.2,0,0.3,0.1,0.3,0.3c0,0.3,0,0.5-0.2,0.7c-0.6,1.3,0.3,2.8-0.7,4
				c-0.2,0-0.5,0-0.7-0.1c0-0.3,0-0.5-0.1-0.8c-0.3-0.3-0.3-0.8-0.6-1.1c0-0.1,0-0.3-0.1-0.4c0.1-0.2,0.2-0.4,0.4-0.7
				c-0.3-0.4,0.6-0.9,0-1.3c-0.3-0.1-0.2-0.3,0-0.5C48.7,55.8,49.1,55.8,49.5,55.9z"/>
			<path class="st183" d="M49.5,55.9c-0.3,0.4-0.7,0.3-1.1,0.2c-0.1-0.2-0.3-0.3-0.4-0.5c-0.5-0.2-0.4-0.6-0.2-1
				C49.2,54,49.7,54.4,49.5,55.9z"/>
			<path class="st202" d="M47.8,54.6c0.1,0.3,0.1,0.7,0.2,1c-1.1-0.3-1-1-0.5-1.7C47.6,54.1,47.7,54.3,47.8,54.6z"/>
			<path class="st186" d="M57.6,52.5c0,0,0.1,0,0.2,0c0.3,0.2,0.6,0.4,0.4,0.8c-1.4,0-2.6,1.1-4,0.7c-0.1-0.1-0.2-0.1-0.3-0.2
				c-0.3-0.4-0.3-0.9-0.1-1.4c0.3-0.6,0.9-0.4,1.4-0.5C55.9,52.5,56.8,52.2,57.6,52.5z"/>
			<path class="st174" d="M50.5,53.9c0.6-0.1,1.2,1.2,1.9,0c0.2-0.2,0.3-0.2,0.4,0c0.1,1.2-0.9,1.8-1.4,2.7c-0.2,0.2-0.5,0.1-0.7,0
				c-0.3-0.3-0.4-0.6-0.4-1C50.5,55.1,49.9,54.4,50.5,53.9z"/>
			<path class="st203" d="M52.2,58.9c-1.1-0.1-0.5,0.9-0.8,1.3c-0.3,0-0.4-0.2-0.5-0.4c-0.1-0.6-0.2-1.2,0.1-1.7
				c0.1-0.2,0.3-0.2,0.4-0.1C51.7,58.2,51.9,58.5,52.2,58.9z"/>
			<path class="st204" d="M52.8,53.9c-0.1,0-0.3,0-0.4,0c0-0.2,0.1-0.4,0.1-0.7c0.1-0.1,0.2-0.1,0.4,0c0.5-0.1,0.3-0.9,0.9-0.9
				c0,0.5,0,0.9,0.1,1.4C53.4,53.6,53.1,53.4,52.8,53.9z"/>
			<path class="st205" d="M45.2,51c0,0.2,0,0.4,0,0.6c-0.3,0.2-0.7,0.5-1,0.7c-0.5,0-1.1,0.1-1.6-0.2c-0.1-0.1-0.1-0.3-0.1-0.4
				c0.3-0.8,0.9-1.4,1.7-1.7C44.6,50.1,45.1,50.4,45.2,51z"/>
			<path class="st206" d="M42.6,51.8c0.5,0.2,1,0.3,1.6,0.5c-0.4,0.7-1.1,0.1-1.6,0.4c0,0-0.1,0-0.1,0c-0.3-0.2-0.4-0.4-0.3-0.8
				C42.3,51.8,42.4,51.8,42.6,51.8z"/>
			<path class="st207" d="M60.1,54.8c-0.9,0-1.8,0.1-2.7,0.1c0-0.1,0-0.1,0-0.2c0.4-0.7,1.3-0.4,1.8-1c0.2-0.1,0.4-0.3,0.6,0
				c0.1,0.1,0.2,0.2,0.3,0.3c0.2,0.2,0.2,0.4,0,0.6C60.1,54.6,60.1,54.7,60.1,54.8z"/>
			<path class="st208" d="M60.1,54.5c0-0.2,0-0.4,0-0.6c0.4-0.4,0.8-0.9,1.3-0.1C60.7,53.7,60.6,54.4,60.1,54.5z"/>
			<path class="st209" d="M59.8,53.6c-0.1,0.1-0.2,0.1-0.4,0.2c-0.5,0.3-0.8,0.1-1-0.4l0-0.1c0.2-0.4,0.6-0.4,0.9-0.2
				c0.2,0,0.3,0.1,0.5,0.1C59.8,53.4,59.8,53.5,59.8,53.6z"/>
			<path class="st210" d="M40.2,51.6c0.2,0.1,0.4,0.2,0.6,0.3c0.1,0.1,0.2,0.2,0.3,0.3c0.2,0.3,0.6,0.4,0.8,0.7
				c-0.5,0.4-1,0.6-1.7,0.6C40.2,52.9,40.2,52.2,40.2,51.6z"/>
			<path class="st179" d="M41.9,52.9c-0.4-0.1-1.3,0.5-1-0.7c0.3-0.3,0.7-0.4,1.1-0.3c0.2,0.2,0.3,0.4,0.5,0.7
				C42.3,52.7,42.1,52.8,41.9,52.9z"/>
			<path class="st204" d="M43.2,54.6c-0.8-0.1-1.6,0.3-2.3-0.3C41.7,54.4,42.5,54,43.2,54.6z"/>
			<path class="st211" d="M58.4,53.5c0.3,0.1,0.7,0.2,1,0.4c-0.3,1.2-1.3,0.6-2,0.8C56.3,53.1,58.1,53.8,58.4,53.5z"/>
			<path class="st181" d="M59.3,53.2c-0.3,0.1-0.6,0.1-0.9,0.2c-0.1,0-0.2-0.1-0.3-0.1c-0.1-0.3-0.3-0.5-0.4-0.8
				c0.1-0.1,0.2-0.2,0.3-0.2c0.3,0,0.5,0,0.8,0C58.9,52.7,59.6,52.6,59.3,53.2z"/>
			<path class="st212" d="M51.1,59.8c0.1,0.1,0.2,0.2,0.2,0.3c-0.2,0.3-0.3,0.7-0.5,1c-0.1,0-0.3,0-0.4,0c-0.4,0.2-0.7-0.1-1-0.3
				c0,0,0,0,0,0c0-1,0-2.1,0.1-3.1c0-0.5-0.2-1,0.6-1.2c0.1,0.1,0.1,0.3,0.2,0.4c-0.1,0.6-0.1,1.3,0.1,1.9c0,0.2,0.1,0.3,0.1,0.5
				c0.1,0.3,0,0.7,0.1,1C50.8,60.2,50.7,59.7,51.1,59.8z"/>
			<path class="st199" d="M48.2,58.9c0.6,0.1,0.5,0.7,0.6,1.1C47.9,60,48.3,59.3,48.2,58.9z"/>
			<path class="st201" d="M49.5,60.9c0.3,0.1,0.7,0.2,1,0.3c-0.2,0.5-0.6,0.5-0.9,0.3C49.2,61.4,49.5,61.1,49.5,60.9z"/>
			<path class="st184" d="M50.5,53.9c0,0.7,0,1.3,0,2c-0.1,0.2-0.2,0.2-0.3,0.1c0-0.1-0.1-0.1-0.2-0.1c0-0.3,0.1-0.6,0.1-0.9
				c-0.4-0.8-0.1-1.6-0.2-2.4c0.1-0.8-0.2-1.6,0.2-2.3c0-0.2,0-0.5,0-0.7c0.1,0,0.2-0.1,0.3,0c0.5,0.2,0.6,0.5,0.4,1
				C50.4,51.7,50.5,52.8,50.5,53.9z"/>
			<path class="st213" d="M52.8,53.2c-0.1,0-0.3,0-0.4,0c-0.3-0.5-1-1.1,0-1.6C52.6,52.2,52.7,52.7,52.8,53.2z"/>
			<path class="st214" d="M50.2,50.3c0,0.8,0,1.5,0,2.3c-0.1,0.1-0.2,0.1-0.3,0c0-0.5,0-1.1,0-1.6c-0.1-0.1-0.1-0.3,0-0.5
				C49.9,50.4,50,50.4,50.2,50.3z"/>
			<path class="st202" d="M49.8,50.5c0,0.2,0,0.3,0,0.5c-0.3,0.1-0.6,0.2-0.9,0.3c0.1-0.2,0.2-0.5,0.3-0.7c0.1-0.2-0.2-0.6,0.2-0.6
				C49.5,49.9,49.6,50.3,49.8,50.5z"/>
			<path class="st215" d="M49.8,52.6c0.1,0,0.2,0,0.3,0c0,0.8,0,1.6,0,2.4C49.4,54.3,49.9,53.4,49.8,52.6z"/>
			<path class="st216" d="M44.2,50c1.3-0.5,1.3-0.5,1.7,0.2c-0.1,0.4-0.4,0.6-0.7,0.8C44.9,50.7,44.2,50.6,44.2,50z"/>
			<path class="st186" d="M50.2,56c0.1,0,0.2-0.1,0.3-0.1c0.1,0.3,0.3,0.5,0.4,0.8c0.1,0.4,0.2,0.8,0.3,1.2c0,0.7,0,1.3-0.1,2
				c-0.2,0.3-0.3,0.5-0.5,0.9c-0.5-0.6-0.4-1.3-0.5-1.9c-0.2-0.6-0.2-1.3,0-1.9c0-0.1,0-0.2,0-0.4C50.2,56.4,50.2,56.2,50.2,56z"/>
			<path class="st217" d="M42,52c-0.3,0.4-0.7,0.2-1.1,0.3c0-0.1,0-0.2,0-0.4c0.4-1.2,1-1.3,1.7-0.3c0,0.1,0,0.1,0,0.2
				C42.4,51.9,42.2,51.9,42,52z"/>
			<path class="st218" d="M50.1,56.9c0,0.6,0,1.3,0,1.9C49.7,58.2,49.7,57.6,50.1,56.9z"/>
		</g>
		<g>
			<path d="M44.8,37v-0.6h1.9V37h-0.6v2.2h-0.7V37H44.8z"/>
		</g>
		<g>
			<path d="M50.3,33.9v1.6h-0.5l0-0.3h0c0,0.1-0.1,0.1-0.1,0.2s-0.1,0.1-0.1,0.1c-0.1,0-0.1,0-0.2,0c-0.1,0-0.1,0-0.2,0
				c-0.2,0-0.3,0-0.5-0.1s-0.2-0.2-0.2-0.3c-0.1-0.1-0.1-0.3-0.1-0.5c0-0.2,0-0.4,0-0.6c0-0.2,0-0.5,0-0.6s0.1-0.3,0.2-0.5
				c0.1-0.1,0.2-0.2,0.3-0.3c0.1-0.1,0.3-0.1,0.5-0.1c0.1,0,0.3,0,0.4,0.1c0.1,0,0.2,0.1,0.3,0.2c0.1,0.1,0.1,0.2,0.2,0.3
				c0,0.1,0.1,0.3,0.1,0.4h-0.7c0-0.2,0-0.3,0-0.3c0-0.1-0.1-0.1-0.2-0.1c-0.1,0-0.1,0-0.1,0c0,0-0.1,0.1-0.1,0.2c0,0.1,0,0.2,0,0.3
				c0,0.1,0,0.3,0,0.5c0,0.2,0,0.4,0,0.5c0,0.1,0,0.2,0,0.3s0,0.1,0.1,0.2c0,0,0.1,0,0.1,0c0,0,0.1,0,0.1,0c0,0,0.1,0,0.1-0.1
				c0,0,0-0.1,0-0.2c0-0.1,0-0.2,0-0.3h-0.3v-0.5H50.3z"/>
		</g>
		<g>
			<path d="M53.4,36.2l0.3,1.7h0l0.3-1.7h1.1v2.9h-0.7V37h0L54,39.1h-0.5L53,37h0v2.1h-0.7v-2.9H53.4z"/>
		</g>
		<g>
			<path d="M53.6,42.2c-0.1,0-0.2,0-0.3-0.1l-8.4-8.4c-0.2-0.2-0.2-0.4,0-0.6c0.2-0.2,0.4-0.2,0.6,0l8.4,8.4c0.2,0.2,0.2,0.4,0,0.6
				C53.8,42.2,53.7,42.2,53.6,42.2z"/>
			<path d="M45.2,42.2c-0.1,0-0.2,0-0.3-0.1c-0.2-0.2-0.2-0.4,0-0.6l8.4-8.4c0.2-0.2,0.4-0.2,0.6,0c0.2,0.2,0.2,0.4,0,0.6l-8.4,8.4
				C45.4,42.2,45.3,42.2,45.2,42.2z"/>
		</g>
	</g>
</g>
</svg>
